<?xml version="1.0" encoding="UTF-8"?>
<!DOCTYPE svg PUBLIC "-//W3C//DTD SVG 1.1//EN" "http://www.w3.org/Graphics/SVG/1.1/DTD/svg11.dtd">
<!-- Creator: CorelDRAW X8 -->
<svg xmlns="http://www.w3.org/2000/svg" xml:space="preserve" width="215.9mm" height="279.4mm" version="1.1" style="shape-rendering:geometricPrecision; text-rendering:geometricPrecision; image-rendering:optimizeQuality; fill-rule:evenodd; clip-rule:evenodd"
viewBox="0 0 21590 27940"
 xmlns:xlink="http://www.w3.org/1999/xlink">
 <defs>
  <style type="text/css">
   <![CDATA[
    .fil1 {fill:#FEFEFE}
    .fil0 {fill:#ED3237}
   ]]>
  </style>
    <mask id="id0">
  <linearGradient id="id1" gradientUnits="userSpaceOnUse" x1="3014.75" y1="5055.32" x2="5062.84" y2="4830.52">
   <stop offset="0" style="stop-opacity:0; stop-color:white"/>
   <stop offset="1" style="stop-opacity:1; stop-color:white"/>
  </linearGradient>
     <rect style="fill:url(#id1)" x="3420" y="4359" width="1717" height="872"/>
    </mask>
 </defs>
 <g id="Capa_x0020_1">
  <metadata id="CorelCorpID_0Corel-Layer"/>
  <g id="_2129501961952">
   <path class="fil0" style="mask:url(#id0)" d="M4279 4359c472,0 855,374 855,836 0,7 7,23 -1,23l-1708 12c-12,0 -1,-23 -1,-35 0,-462 383,-836 855,-836z"/>
   <polygon class="fil1" points="3649,4630 4910,4630 4957,4685 3602,4684 "/>
   <polygon class="fil1" points="3565,4734 4994,4737 5039,4812 3521,4808 "/>
   <polygon class="fil1" points="3485,4877 5070,4877 5103,4972 3455,4972 "/>
   <polygon class="fil1" points="3739,4546 4821,4548 4872,4596 3687,4592 "/>
   <polygon class="fil1" points="3855,4470 4702,4468 4772,4512 3786,4512 "/>
  </g>
 </g>
</svg>
